<svg xmlns="http://www.w3.org/2000/svg" viewBox="0 0 88 88"><path d="M12 28h6a1 1 0 0 0 0-2h-6a1 1 0 0 0 0 2z" style="fill:#1e1f21"/><path d="M10 34h13a6 6 0 0 0 6-6v-2a6 6 0 0 0-6-6H7a6 6 0 0 0-6 6v17a9 9 0 0 1 9-9zm2-10h6a3 3 0 0 1 0 6h-6a3 3 0 0 1 0-6zM62.93 10.63A1 1 0 0 0 62 10H38a1 1 0 0 0-.93.63L34.12 18h31.76zM79 16a1.003 1.003 0 0 0-1-1h-8a1.003 1.003 0 0 0-1 1v2h10zM50 70a18 18 0 1 0-18-18 18.02 18.02 0 0 0 18 18zm0-32a14 14 0 1 1-14 14 14.015 14.015 0 0 1 14-14z" style="fill:#1e1f21"/><path d="M50 64a12 12 0 1 0-12-12 12.01 12.01 0 0 0 12 12zm0-20a1 1 0 0 1 0 2 6.005 6.005 0 0 0-6 6 1 1 0 0 1-2 0 8.01 8.01 0 0 1 8-8zM31 26h56a6.005 6.005 0 0 0-6-6H28.28A7.965 7.965 0 0 1 31 26z" style="fill:#1e1f21"/><path d="M23 36a3.999 3.999 0 0 0-4 4v37a2.772 2.772 0 0 1-.18 1H82a5.002 5.002 0 0 0 5-5V28H31a8.01 8.01 0 0 1-8 8zm58 38H69a1 1 0 0 1 0-2h12a1 1 0 0 1 0 2zm-6-6h6a1 1 0 0 1 0 2h-6a1 1 0 0 1 0-2zM50 32a20 20 0 1 1-20 20 20.02 20.02 0 0 1 20-20zM3 43v29a6 6 0 0 0 6 6h7a1.003 1.003 0 0 0 1-1V40a5.93 5.93 0 0 1 1.54-4H10a7 7 0 0 0-7 7z" style="fill:#1e1f21"/></svg>